# xmcd CD database file
#
# Track frame offsets:
#	150
#	14501
#	27694
#	50627
#	60075
#	72451
#	86043
#	96960
#	109362
#	122105
#	139268
#	152877
#	165671
#	178209
#	192221
#	207543
#	229303
#	244812
#	256780
#	265399
#
# Disc length: 3769 seconds
#
# Revision: 0
# Processed by: cddbd v1.5.2PL0 Copyright (c) Steve Scherf et al.
# Submitted via: CDex 1.51
#
DISCID=310eb714
DTITLE=Ultimate Irish Collecton - A little bit Country (2)
DYEAR=2006
DGENRE=Country
TTITLE0=Blanket on the groud PHILOMENIA BEGLEY
TTITLE1=Offaly my county my home JOHN HOGAN
TTITLE2=The rustic old bridge by the mill LOUISE MORRISEY
TTITLE3=If i could make a living JIMMY BUCKLEY
TTITLE4=Crazy MAISIE McDANIELS
TTITLE5=Five little fingers FRANKIES McBRIDE
TTITLE6=Hello darlin ROLY DANIELS
TTITLE7=The grass grows the greenest LARRY CUNNIGHAM
TTITLE8=Gentle Mother BIG TOM and MAINLINERS
TTITLE9=The gambler RAY LYNAM
TTITLE10=Mother's chair ANN WILLIAMSON
TTITLE11=Tipperary so far away MICK FLAVIN
TTITLE12=Wedding bells BIG TOM and MAINLINERS
TTITLE13=Could i have this dance FRANCKIE McBRIDE
TTITLE14=Lucille BRENDAN QUINN
TTITLE15=Lady of knock ANN WILLIAMSON
TTITLE16=seven spanish angels ROLY DANIELS
TTITLE17=Big tom is still the king SUSAN Mc CANN
TTITLE18=Ireland swings SUSAN McCANN
TTITLE19=Momma don't let your children grow up to be cowboys T R DALLAS
EXTD=YEAR: 2006
EXTT0=
EXTT1=
EXTT2=
EXTT3=
EXTT4=
EXTT5=
EXTT6=
EXTT7=
EXTT8=
EXTT9=
EXTT10=
EXTT11=
EXTT12=
EXTT13=
EXTT14=
EXTT15=
EXTT16=
EXTT17=
EXTT18=
EXTT19=
PLAYORDER=
